Coordinates
version=1
nRows=18
nColumns=63
inDegrees=yes

Units are S.I. units (second, meters, Newtons, ...)
If the header above contains a line with 'inDegrees', this indicates whether rotational values are in degrees (yes) or radians (no).

endheader
time	pelvis_tilt	pelvis_list	pelvis_rotation	pelvis_tx	pelvis_ty	pelvis_tz	hip_flexion_r	hip_adduction_r	hip_rotation_r	knee_angle_r	knee_angle_r_beta	ankle_angle_r	subtalar_angle_r	mtp_angle_r	hip_flexion_l	hip_adduction_l	hip_rotation_l	knee_angle_l	knee_angle_l_beta	ankle_angle_l	subtalar_angle_l	mtp_angle_l	L5_S1_Flex_Ext	L5_S1_Lat_Bending	L5_S1_axial_rotation	L4_L5_Flex_Ext	L4_L5_Lat_Bending	L4_L5_axial_rotation	L3_L4_Flex_Ext	L3_L4_Lat_Bending	L3_L4_axial_rotation	L2_L3_Flex_Ext	L2_L3_Lat_Bending	L2_L3_axial_rotation	L1_L2_Flex_Ext	L1_L2_Lat_Bending	L1_L2_axial_rotation	L1_T12_Flex_Ext	L1_T12_Lat_Bending	L1_T12_axial_rotation	Abs_r3	Abs_r2	Abs_r1	Abs_t1	Abs_t2	neck_flexion	neck_bending	neck_rotation	arm_flex_r	arm_add_r	arm_rot_r	elbow_flex_r	pro_sup_r	wrist_flex_r	wrist_dev_r	arm_flex_l	arm_add_l	arm_rot_l	elbow_flex_l	pro_sup_l	wrist_flex_l	wrist_dev_l
3.016949	-0.701472	-4.361907	83.006432	0.197666	0.883300	0.638728	3.085913	-1.498237	-4.306611	8.831483	0.154138	29.772046	16.656383	0.000000	1.843603	1.057617	7.570063	7.188963	0.125471	23.096933	-12.080272	0.000000	-0.318714	0.187188	0.575178	-0.591883	0.248960	0.611127	-0.523614	0.455129	0.611127	-0.364258	0.455129	0.503281	-0.295957	0.381714	0.467332	-0.182113	0.289955	0.431384	-2.276539	2.117510	3.198968	0.000000	0.000000	26.619266	5.201639	13.431980	6.957158	-11.424862	114.677356	8.357414	3.809859	-2.871033	-17.220404	3.661422	-13.025765	61.039382	20.969384	58.747951	-10.601472	-7.966450
3.033898	-0.735487	-4.296695	82.740728	0.198178	0.883313	0.638300	2.900984	-1.501842	-3.609318	8.613924	0.150341	29.545060	16.338967	0.000000	1.663996	1.088578	7.371105	7.044712	0.122953	22.930664	-12.175106	0.000000	-0.320985	0.180099	0.617390	-0.596102	0.239532	0.655976	-0.527347	0.437894	0.655976	-0.366854	0.437894	0.540216	-0.298067	0.367259	0.501629	-0.183411	0.278974	0.463042	-2.292765	2.037321	3.433735	0.000000	0.000000	26.536820	5.156048	13.295915	6.893014	-11.404767	114.656788	8.381706	3.778825	-2.875127	-17.146892	3.621297	-13.086337	61.460851	20.985478	57.883573	-10.505023	-8.049016
3.050847	-0.781185	-4.233250	82.459607	0.198722	0.883321	0.637878	2.713179	-1.515632	-2.929887	8.371824	0.146116	29.349018	16.062967	0.000000	1.486533	1.129259	7.124053	6.898561	0.120403	22.766266	-12.203169	0.000000	-0.324388	0.171637	0.662897	-0.602422	0.228277	0.704328	-0.532938	0.417318	0.704328	-0.370743	0.417318	0.580035	-0.301227	0.350002	0.538604	-0.185356	0.265865	0.497173	-2.317074	1.941589	3.686835	0.000000	0.000000	26.452583	5.070053	13.130283	6.832208	-11.378269	114.567263	8.404266	3.803503	-2.884220	-17.101223	3.567542	-13.148944	61.749427	21.011248	57.199037	-10.416840	-8.125090
3.067797	-0.835030	-4.172431	82.178766	0.199277	0.883329	0.637484	2.525509	-1.535269	-2.275835	8.107682	0.141506	29.181564	15.802366	0.000000	1.317677	1.176726	6.866492	6.756018	0.117915	22.607173	-12.195843	0.000000	-0.329031	0.162204	0.707478	-0.611044	0.215732	0.751695	-0.540565	0.394383	0.751695	-0.376050	0.394383	0.619043	-0.305538	0.330767	0.574826	-0.188008	0.251254	0.530608	-2.350236	1.834887	3.934779	0.000000	0.000000	26.363146	4.958676	12.958317	6.787213	-11.337239	114.578053	8.401020	3.791611	-2.888854	-17.082374	3.507719	-13.214257	61.951999	21.041990	56.612596	-10.340934	-8.213629
3.084746	-0.891716	-4.116627	81.926367	0.199791	0.883336	0.637126	2.347231	-1.558796	-1.710423	7.841541	0.136861	29.052896	15.578274	0.000000	1.161358	1.228534	6.655454	6.614595	0.115446	22.453192	-12.198249	0.000000	-0.334303	0.152529	0.747641	-0.620834	0.202864	0.794369	-0.549226	0.370860	0.794369	-0.382075	0.370860	0.654186	-0.310434	0.311038	0.607458	-0.191021	0.236268	0.560731	-2.387892	1.725443	4.158155	0.000000	0.000000	26.264222	4.835605	12.782053	6.751990	-11.288823	114.626247	8.382446	3.770803	-2.894753	-17.093378	3.449857	-13.282091	62.077808	21.080488	56.181136	-10.290372	-8.305286
3.101695	-0.942875	-4.067459	81.713393	0.200242	0.883341	0.636832	2.190501	-1.580792	-1.272152	7.595800	0.132572	28.969648	15.410277	0.000000	1.024284	1.275611	6.495726	6.481822	0.113129	22.317868	-12.207508	0.000000	-0.340087	0.143690	0.781473	-0.631576	0.191108	0.830315	-0.558729	0.349368	0.830315	-0.388685	0.349368	0.683789	-0.315805	0.293013	0.634947	-0.194326	0.222576	0.586105	-2.429208	1.625452	4.346320	0.000000	0.000000	26.156250	4.699456	12.604776	6.727716	-11.238236	114.707082	8.349736	3.751453	-2.902710	-17.124893	3.395747	-13.343098	62.098713	21.122648	55.957768	-10.276550	-8.384875
3.118644	-0.987456	-4.022041	81.527422	0.200641	0.883344	0.636602	2.059854	-1.601679	-0.966276	7.383444	0.128865	28.933201	15.314170	0.000000	0.908273	1.313840	6.311690	6.372252	0.111217	22.236710	-12.142412	0.000000	-0.346365	0.135583	0.811849	-0.643235	0.180326	0.862589	-0.569044	0.329657	0.862589	-0.395861	0.329657	0.710368	-0.321635	0.276481	0.659627	-0.197913	0.210018	0.608886	-2.474053	1.533745	4.515258	0.000000	0.000000	26.033851	4.560786	12.415837	6.711570	-11.194066	114.769538	8.324686	3.754944	-2.908921	-17.175666	3.357940	-13.394381	62.073049	21.151667	55.933289	-10.302013	-8.461030
3.135593	-1.021497	-3.980839	81.369997	0.200980	0.883340	0.636453	1.969033	-1.619366	-0.792326	7.232475	0.126231	28.947374	15.280538	0.000000	0.813126	1.342169	6.133724	6.285927	0.109710	22.198548	-12.056195	0.000000	-0.353280	0.128574	0.837491	-0.656077	0.171003	0.889834	-0.580404	0.312615	0.889834	-0.403764	0.312615	0.732805	-0.328056	0.262188	0.680462	-0.201864	0.199161	0.628118	-2.523447	1.454454	4.657875	0.000000	0.000000	25.901753	4.433369	12.228672	6.707928	-11.149964	114.904520	8.289553	3.711748	-2.890983	-17.236632	3.322976	-13.431337	61.914023	21.177068	56.158155	-10.369291	-8.513579
3.152542	-1.040049	-3.943180	81.261975	0.201221	0.883330	0.636383	1.919451	-1.631873	-0.784226	7.155867	0.124893	29.009764	15.329962	0.000000	0.741723	1.357073	6.007790	6.232333	0.108775	22.191519	-11.988881	0.000000	-0.360616	0.123169	0.855634	-0.669699	0.163815	0.909111	-0.592455	0.299474	0.909111	-0.412148	0.299474	0.748680	-0.334868	0.251167	0.695203	-0.206056	0.190789	0.641725	-2.575841	1.393318	4.758779	0.000000	0.000000	25.761799	4.322668	12.036849	6.712822	-11.111531	115.058423	8.257894	3.624281	-2.846615	-17.301662	3.307266	-13.452782	61.724246	21.184472	56.527277	-10.474030	-8.560606
3.169492	-1.042862	-3.911176	81.195235	0.201379	0.883310	0.636382	1.914283	-1.637386	-0.917080	7.155486	0.124887	29.104853	15.445976	0.000000	0.687407	1.360654	5.982319	6.198652	0.108187	22.173255	-12.032541	0.000000	-0.367698	0.119320	0.868279	-0.682852	0.158695	0.922546	-0.604091	0.290114	0.922546	-0.420242	0.290114	0.759744	-0.341444	0.243317	0.705477	-0.210103	0.184826	0.651209	-2.626430	1.349767	4.829107	0.000000	0.000000	25.624621	4.234104	11.839528	6.719800	-11.092748	115.033976	8.269448	3.637551	-2.808121	-17.369558	3.310668	-13.462889	61.524569	21.179636	57.014696	-10.607774	-8.587483
3.186441	-1.029176	-3.884567	81.170486	0.201451	0.883282	0.636438	1.950215	-1.635089	-1.176731	7.230534	0.126197	29.222262	15.628546	0.000000	0.651077	1.350817	6.026168	6.192707	0.108083	22.146369	-12.152635	0.000000	-0.374104	0.117210	0.875133	-0.694748	0.155890	0.929828	-0.614615	0.284985	0.929828	-0.427563	0.284985	0.765741	-0.347393	0.239015	0.711045	-0.213763	0.181559	0.656349	-2.672184	1.325906	4.867225	0.000000	0.000000	25.497977	4.171385	11.638201	6.731914	-11.083802	114.962040	8.300842	3.644841	-2.756056	-17.434832	3.332646	-13.461522	61.349462	21.161382	57.546073	-10.761375	-8.600823
3.203390	-1.002673	-3.862500	81.191356	0.201440	0.883251	0.636537	2.018789	-1.627603	-1.551822	7.369943	0.128630	29.349376	15.873164	0.000000	0.628425	1.333055	6.183617	6.208460	0.108358	22.076073	-12.412899	0.000000	-0.379330	0.116518	0.874195	-0.704454	0.154969	0.928832	-0.623202	0.283303	0.928832	-0.433537	0.283303	0.764921	-0.352246	0.237604	0.710283	-0.216749	0.180487	0.655646	-2.709518	1.318078	4.862011	0.000000	0.000000	25.385278	4.137128	11.442616	6.750330	-11.080254	114.862531	8.342379	3.656275	-2.688653	-17.491008	3.357022	-13.450183	61.135851	21.136338	58.124332	-10.906313	-8.586369
3.220339	-0.964925	-3.842230	81.235676	0.201384	0.883227	0.636667	2.109588	-1.612930	-1.975148	7.557724	0.131907	29.468880	16.141023	0.000000	0.614715	1.305565	6.379125	6.245597	0.109006	21.982674	-12.731540	0.000000	-0.383097	0.117188	0.869983	-0.711450	0.155860	0.924357	-0.629391	0.284931	0.924357	-0.437842	0.284931	0.761236	-0.355744	0.238970	0.706862	-0.218902	0.181524	0.652488	-2.736426	1.325654	4.838587	0.000000	0.000000	25.283423	4.119832	11.240656	6.772672	-11.079459	114.785322	8.387790	3.640008	-2.617101	-17.537720	3.404686	-13.431357	61.038302	21.090944	58.614048	-11.051491	-8.566887
3.237288	-0.918488	-3.818632	81.320147	0.201268	0.883212	0.636796	2.205477	-1.594683	-2.463517	7.781528	0.135813	29.585747	16.437508	0.000000	0.598975	1.273503	6.674304	6.292022	0.109817	21.852344	-13.156814	0.000000	-0.385368	0.118967	0.857068	-0.715666	0.158225	0.910635	-0.633121	0.289255	0.910635	-0.440437	0.289255	0.749935	-0.357853	0.242597	0.696368	-0.220199	0.184279	0.642801	-2.752643	1.345773	4.766757	0.000000	0.000000	25.180503	4.120567	11.048353	6.797098	-11.086877	114.647224	8.459075	3.648785	-2.561184	-17.567792	3.436801	-13.409683	60.863086	21.054567	59.170775	-11.182175	-8.509757
3.254237	-0.867769	-3.787217	81.440865	0.201110	0.883216	0.636923	2.289271	-1.571778	-2.921776	8.015453	0.139896	29.687792	16.669659	0.000000	0.587514	1.234548	6.923768	6.366770	0.111121	21.756624	-13.471532	0.000000	-0.387051	0.121559	0.834203	-0.718793	0.161674	0.886341	-0.635887	0.295559	0.886341	-0.442361	0.295559	0.729928	-0.359416	0.247884	0.677790	-0.221161	0.188295	0.625653	-2.764670	1.375103	4.639589	0.000000	0.000000	25.074892	4.142791	10.898022	6.821973	-11.101366	114.373923	8.554529	3.772376	-2.546805	-17.578522	3.468477	-13.391391	60.740960	21.018855	59.620349	-11.314236	-8.449123
3.271186	-0.815186	-3.744698	81.525980	0.200996	0.883235	0.637018	2.362570	-1.547288	-3.302827	8.258321	0.144135	29.788262	16.869630	0.000000	0.546149	1.200358	7.233664	6.419160	0.112035	21.614618	-13.931783	0.000000	-0.388360	0.124712	0.815414	-0.721224	0.165867	0.866377	-0.638037	0.303225	0.866377	-0.443857	0.303225	0.713487	-0.360631	0.254313	0.662524	-0.221909	0.193179	0.611560	-2.774018	1.410767	4.535086	0.000000	0.000000	24.952104	4.156225	10.751466	6.847407	-11.120414	114.172462	8.648414	3.848403	-2.523115	-17.574300	3.490628	-13.369141	60.615341	20.980266	60.078192	-11.440479	-8.370284
3.288136	-0.763773	-3.696102	81.602439	0.200900	0.883265	0.637084	2.417333	-1.522887	-3.631606	8.484842	0.148088	29.890347	17.050539	0.000000	0.493299	1.168283	7.523638	6.468380	0.112895	21.478645	-14.384206	0.000000	-0.389749	0.128064	0.795627	-0.723804	0.170325	0.845353	-0.640319	0.311374	0.845353	-0.445445	0.311374	0.696173	-0.361921	0.261147	0.646447	-0.222703	0.198370	0.596720	-2.783941	1.448681	4.425037	0.000000	0.000000	24.824401	4.172483	10.631584	6.874009	-11.142436	113.980029	8.746836	3.919061	-2.512633	-17.550145	3.507354	-13.346637	60.510495	20.939491	60.485409	-11.564615	-8.284270
3.305085	-0.716524	-3.646155	81.662152	0.200829	0.883296	0.637120	2.453169	-1.499224	-3.900308	8.679680	0.151489	30.000981	17.215610	0.000000	0.435529	1.137365	7.732336	6.517741	0.113756	21.374496	-14.746595	0.000000	-0.391646	0.131312	0.777724	-0.727326	0.174645	0.826332	-0.643435	0.319272	0.826332	-0.447612	0.319272	0.680508	-0.363683	0.267772	0.631901	-0.223787	0.203403	0.583293	-2.797489	1.485430	4.325467	0.000000	0.000000	24.704684	4.196962	10.551894	6.901907	-11.163942	113.798196	8.841125	3.986086	-2.520244	-17.497821	3.513747	-13.327628	60.388643	20.911839	60.863982	-11.683562	-8.190633
